<svg width="37" height="40" viewBox="0 0 37 40" fill="none" xmlns="http://www.w3.org/2000/svg">
<path d="M26.8416 22.029C24.6786 13.7029 18.4995 10.502 18.4995 10.502C18.4995 10.502 12.3164 13.7029 10.1534 22.029C9.99538 22.6356 10.7875 23.0065 11.1569 22.4778C12.7391 20.1786 15.4644 16.8444 18.4995 15.3915C21.5614 16.8465 24.2558 20.1765 25.8688 22.4778H25.8647C26.2075 23.0065 26.9975 22.6356 26.8416 22.029Z" fill="#194185"/>
<path d="M12.1867 8.75536C12.1867 8.75536 7.27587 11.901 4.2633 16.2905C3.89391 16.8192 4.57933 17.4524 5.08211 17.0303L5.078 17.0262C8.01054 14.5671 13.1061 10.7063 17.2822 9.65088C17.2822 9.65088 14.6123 3.43548 5.39813 6.15894C5.39813 6.15894 1.7022 7.64056 0.117926 9.91524C-0.228889 10.364 0.249267 10.9747 0.774621 10.737C2.91502 9.81278 7.38053 8.2246 12.1867 8.75331V8.75536Z" fill="#194185"/>
<path d="M36.8973 9.96833C35.4218 7.80021 31.9639 6.31859 31.6171 6.16285H31.5412C22.3495 3.43938 19.6797 9.65479 19.6797 9.65479C23.8292 10.6876 28.8754 14.5197 31.8059 16.9522L31.8018 16.9481C32.3046 17.3703 32.99 16.737 32.6206 16.2083C29.5034 11.8721 24.3545 8.75312 24.3545 8.75312C29.2428 8.22646 34.0222 9.86586 36.2386 10.7901C36.7373 11.0012 37.2154 10.4171 36.8953 9.96833H36.8973Z" fill="#194185"/>
<path d="M10.5695 1.00892C12.6832 2.43725 16.6706 5.31851 18.4929 8.01534C20.3419 5.31851 24.3293 2.4352 26.443 1.00892C26.9191 0.691284 26.6544 -0.0505482 26.0736 0.00273254C22.6814 0.36955 18.536 3.45779 18.495 3.48852C18.4539 3.45779 14.3332 0.36955 10.9163 0.00273254C10.3581 -0.0505482 10.0708 0.689235 10.5695 1.00892Z" fill="#194185"/>
<path d="M9.07568 37.8069C8.78838 38.0569 8.64062 38.4053 8.64062 38.7537C8.64062 39.0754 8.76786 39.4053 9.02438 39.6512C9.48201 40.0877 10.1921 40.1123 10.6846 39.7168C12.7901 38.0139 15.0105 36.4237 17.3397 34.981C16.4984 34.4871 15.6426 34.0076 14.7786 33.5547C12.7696 34.8293 10.8652 36.2515 9.07364 37.8049L9.07568 37.8069Z" fill="#194185"/>
<path d="M33.7801 26.5753C28.3419 27.3254 23.1951 28.9955 18.4997 31.4198C13.8044 28.9976 8.65755 27.3274 3.21727 26.5712C2.80684 26.5139 2.43335 26.8274 2.41488 27.2393C2.39846 27.5815 2.63036 27.8848 2.96486 27.9606L2.96897 27.9647C11.6763 29.9751 19.5833 34.2806 26.3164 39.7172C26.8089 40.1169 27.519 40.0902 27.9766 39.6517C28.5061 39.1414 28.4835 38.2889 27.9274 37.8053C25.7993 35.9589 23.5049 34.2949 21.0711 32.844C25.1385 30.6985 29.4767 29.016 34.0325 27.9627C34.3588 27.8889 34.5866 27.5979 34.5866 27.268V27.2413C34.5681 26.8274 34.1947 26.5118 33.7842 26.5733L33.7801 26.5753Z" fill="#194185"/>
<path d="M18.0701 18.6022C16.6336 22.3974 18.4621 29.2849 18.4621 29.2849C18.4621 29.2849 20.3562 22.3933 18.9197 18.6022C18.7884 18.2107 18.224 18.2107 18.0701 18.6022Z" fill="#194185"/>
<path d="M18.4986 37.1133L14.6836 39.9986H22.3156L18.4986 37.1133Z" fill="#47CD89"/>
</svg>
