<svg width="247" height="48" viewBox="0 0 247 48" fill="none" xmlns="http://www.w3.org/2000/svg">
<g clip-path="url(#clip0_1441_35610)">
<path d="M224.805 44.5352L220.229 47.9976H229.384L224.805 44.5352Z" fill="white"/>
<path d="M173.222 46.9035H173.591C173.921 46.9035 174.195 46.8617 174.416 46.7781C174.635 46.6944 174.812 46.5764 174.95 46.4239C175.086 46.2715 175.182 46.0895 175.241 45.878C175.3 45.6665 175.327 45.4255 175.327 45.1624C175.327 44.9878 175.317 44.8083 175.297 44.6214C175.278 44.4345 175.253 44.2476 175.221 44.0607L175.017 42.8902L175.849 42.7352L175.965 43.441L177.621 43.1705V42.3467H178.463V43.8861C178.463 44.1566 178.527 44.341 178.653 44.437C178.778 44.5329 178.988 44.582 179.278 44.582H179.598V45.4427L179.357 45.6739H179.308C178.746 45.6739 178.333 45.5632 178.072 45.3395C177.811 45.1157 177.663 44.7468 177.631 44.2304L176.11 44.4812C176.122 44.6042 176.132 44.7198 176.139 44.8304C176.147 44.9411 176.149 45.0468 176.149 45.1501C176.149 45.5509 176.102 45.9223 176.009 46.269C175.915 46.6133 175.765 46.9158 175.558 47.174C175.352 47.4322 175.086 47.6338 174.763 47.7789C174.441 47.924 174.052 47.9978 173.601 47.9978H173.222V46.9035ZM177.284 47.6781C177.136 47.6781 177.018 47.6338 176.93 47.5428C176.843 47.4519 176.799 47.3141 176.799 47.1273C176.799 46.9404 176.843 46.7928 176.93 46.7067C177.016 46.6207 177.134 46.5764 177.284 46.5764H177.429C177.577 46.5764 177.698 46.6207 177.789 46.7067C177.88 46.7928 177.924 46.9354 177.924 47.1273C177.924 47.3191 177.88 47.4543 177.789 47.5428C177.698 47.6338 177.579 47.6781 177.429 47.6781H177.284ZM178.65 47.6781C178.503 47.6781 178.384 47.6338 178.296 47.5428C178.21 47.4519 178.165 47.3141 178.165 47.1273C178.165 46.9404 178.21 46.7928 178.296 46.7067C178.382 46.6207 178.5 46.5764 178.65 46.5764H178.796C178.943 46.5764 179.064 46.6207 179.155 46.7067C179.246 46.7928 179.29 46.9354 179.29 47.1273C179.29 47.3191 179.246 47.4543 179.155 47.5428C179.064 47.6338 178.946 47.6781 178.796 47.6781H178.65Z" fill="white"/>
<path d="M179.366 44.8132L179.598 44.582H180.634V45.4427L180.4 45.6739H179.364V44.8132H179.366Z" fill="white"/>
<path d="M180.403 44.8132L180.634 44.582H181.671V45.4427L181.439 45.6739H180.403V44.8132Z" fill="white"/>
<path d="M181.439 44.8129L181.67 44.5817H181.865C182 44.5817 182.121 44.5719 182.224 44.5522C182.328 44.5325 182.419 44.4981 182.495 44.4465C182.571 44.3948 182.643 44.326 182.709 44.2424C182.773 44.1588 182.837 44.053 182.904 43.9227L183.3 43.1185L184.026 43.4874L183.591 44.3481L183.659 44.3875C183.854 44.4981 184.039 44.5768 184.216 44.6235C184.393 44.6727 184.575 44.6949 184.762 44.6949C185.053 44.6949 185.267 44.6285 185.402 44.4981C185.538 44.3678 185.607 44.1366 185.607 43.8096V43.1161H186.449V43.8169C186.449 44.1342 186.493 44.3604 186.579 44.4932C186.665 44.626 186.82 44.6924 187.039 44.6924H187.214C187.421 44.6924 187.571 44.626 187.665 44.4932C187.758 44.3604 187.805 44.1342 187.805 43.8169V42.7275H188.647V43.812C188.647 44.3211 188.898 44.5768 189.403 44.5768H189.772V45.4375L189.531 45.6687C189.078 45.6687 188.728 45.5875 188.48 45.4228C188.231 45.258 188.061 45.0022 187.97 44.653H187.921C187.881 45.0588 187.778 45.349 187.606 45.5236C187.433 45.6982 187.194 45.7843 186.884 45.7843C186.225 45.7843 185.833 45.408 185.713 44.6506H185.653C185.543 45.4055 185.186 45.7843 184.578 45.7843C184.391 45.7843 184.199 45.7498 184.002 45.6785C183.805 45.6072 183.571 45.4916 183.3 45.3293L183.039 45.1744C182.845 45.3736 182.626 45.5064 182.379 45.5703C182.133 45.6342 181.821 45.6662 181.439 45.6662V44.8055V44.8129Z" fill="white"/>
<path d="M189.541 44.8132L189.772 44.582H190.092C190.629 44.582 190.897 44.3263 190.897 43.8172V42.3467H191.739V43.8172C191.739 44.3263 191.99 44.582 192.495 44.582H192.864V45.4427L192.623 45.6739C192.145 45.6739 191.776 45.5854 191.512 45.4083C191.251 45.2313 191.077 44.9509 190.993 44.5722H190.934C190.858 44.973 190.712 45.2558 190.503 45.4231C190.294 45.5903 189.971 45.6739 189.538 45.6739V44.8132H189.541ZM190.56 47.6781C190.412 47.6781 190.294 47.6338 190.205 47.5428C190.119 47.4519 190.075 47.3141 190.075 47.1273C190.075 46.9404 190.119 46.7928 190.205 46.7067C190.291 46.6207 190.41 46.5764 190.56 46.5764H190.705C190.853 46.5764 190.973 46.6207 191.064 46.7067C191.155 46.7928 191.2 46.9354 191.2 47.1273C191.2 47.3191 191.155 47.4543 191.064 47.5428C190.973 47.6338 190.855 47.6781 190.705 47.6781H190.56ZM191.926 47.6781C191.778 47.6781 191.66 47.6338 191.571 47.5428C191.485 47.4519 191.441 47.3141 191.441 47.1273C191.441 46.9404 191.485 46.7928 191.571 46.7067C191.658 46.6207 191.776 46.5764 191.926 46.5764H192.071C192.219 46.5764 192.34 46.6207 192.431 46.7067C192.522 46.7928 192.566 46.9354 192.566 47.1273C192.566 47.3191 192.522 47.4543 192.431 47.5428C192.34 47.6338 192.221 47.6781 192.071 47.6781H191.926Z" fill="white"/>
<path d="M192.633 44.813L192.864 44.5818H193.069C193.507 44.5818 193.817 44.5327 193.999 44.4318C194.179 44.331 194.27 44.149 194.27 43.8859C194.27 43.7753 194.262 43.6375 194.245 43.4703C194.228 43.3031 194.198 43.0793 194.154 42.8014L193.999 41.9604L194.841 41.8252L194.967 42.6662C195.043 43.1826 195.082 43.5884 195.082 43.8859C195.082 44.4933 194.917 44.9433 194.587 45.236C194.258 45.5286 193.75 45.6762 193.066 45.6762H192.63V44.8155L192.633 44.813ZM193.524 40.8341C193.376 40.8341 193.258 40.7899 193.169 40.6989C193.083 40.6079 193.039 40.4702 193.039 40.2833C193.039 40.0964 193.083 39.9488 193.169 39.8628C193.256 39.7767 193.374 39.7324 193.524 39.7324H193.669C193.817 39.7324 193.938 39.7767 194.029 39.8628C194.12 39.9488 194.164 40.089 194.164 40.2833C194.164 40.4775 194.12 40.6103 194.029 40.6989C193.938 40.7874 193.819 40.8341 193.669 40.8341H193.524ZM194.89 40.8341C194.743 40.8341 194.624 40.7899 194.536 40.6989C194.45 40.6079 194.405 40.4702 194.405 40.2833C194.405 40.0964 194.45 39.9488 194.536 39.8628C194.622 39.7767 194.74 39.7324 194.89 39.7324H195.035C195.183 39.7324 195.304 39.7767 195.395 39.8628C195.486 39.9488 195.53 40.089 195.53 40.2833C195.53 40.4775 195.486 40.6103 195.395 40.6989C195.304 40.7874 195.186 40.8341 195.035 40.8341H194.89Z" fill="white"/>
<path d="M135.469 42.5308V47.4023H134.548V42.5308H132.852V41.7168H137.167V42.5308H135.471H135.469Z" fill="white"/>
<path d="M141.089 47.4028L140.574 45.8634H138.445L137.948 47.4028H137.01L138.95 41.7148H140.107L142.046 47.4028H141.084H141.089ZM139.531 42.5632H139.489L138.664 45.0716H140.343L139.528 42.5632H139.531Z" fill="white"/>
<path d="M143.78 47.4023V45.1621L141.823 41.7168H142.874L144.26 44.2497H144.284L145.663 41.7168H146.675L144.701 45.1473V47.4048H143.78V47.4023Z" fill="white"/>
<path d="M148.92 47.5009C148.442 47.5009 148.033 47.4148 147.701 47.2402C147.366 47.0656 147.081 46.832 146.839 46.5394L147.474 45.9443C147.676 46.1877 147.898 46.3746 148.139 46.4976C148.38 46.623 148.656 46.6845 148.966 46.6845C149.331 46.6845 149.604 46.6033 149.791 46.441C149.976 46.2787 150.069 46.0574 150.069 45.782C150.069 45.5582 150.003 45.3836 149.872 45.2532C149.742 45.1229 149.51 45.0245 149.178 44.9606L148.673 44.8721C148.119 44.7688 147.703 44.5868 147.425 44.3262C147.147 44.0655 147.009 43.7064 147.009 43.2515C147.009 43.0007 147.056 42.7744 147.152 42.5703C147.248 42.3662 147.381 42.1965 147.551 42.0564C147.721 41.9162 147.93 41.8104 148.174 41.7342C148.417 41.658 148.693 41.6211 148.998 41.6211C149.427 41.6211 149.801 41.6949 150.116 41.8449C150.431 41.9949 150.699 42.2113 150.923 42.4916L150.278 43.0622C150.131 42.8728 149.951 42.7203 149.739 42.6048C149.528 42.4916 149.264 42.4326 148.949 42.4326C148.634 42.4326 148.371 42.499 148.191 42.6293C148.011 42.7597 147.923 42.949 147.923 43.1999C147.923 43.4507 147.996 43.6179 148.142 43.7335C148.289 43.8515 148.516 43.9376 148.826 43.9991L149.331 44.1048C149.902 44.213 150.318 44.3975 150.584 44.6581C150.847 44.9188 150.98 45.2778 150.98 45.7328C150.98 45.9984 150.933 46.2394 150.842 46.4582C150.749 46.6746 150.616 46.8615 150.438 47.0165C150.261 47.1714 150.045 47.2919 149.791 47.3755C149.535 47.4591 149.244 47.5009 148.92 47.5009Z" fill="white"/>
<path d="M152.09 47.4028V41.7148H155.736V42.5288H153.011V44.11H155.483V44.924H153.011V46.5864H155.736V47.4004H152.09V47.4028Z" fill="white"/>
<path d="M156.928 47.4028V41.7148H160.574V42.5288H157.848V44.11H160.32V44.924H157.848V46.5864H160.574V47.4004H156.928V47.4028Z" fill="white"/>
<path d="M162.686 47.4028H161.765V41.7148H164.219C164.732 41.7148 165.133 41.8673 165.426 42.1747C165.719 42.4821 165.866 42.8977 165.866 43.4264C165.866 43.8346 165.773 44.1715 165.586 44.4396C165.399 44.7076 165.123 44.897 164.759 45.0052L165.989 47.4004H164.963L163.821 45.1035H162.686V47.4004V47.4028ZM164.153 44.3314C164.387 44.3314 164.569 44.2699 164.7 44.1494C164.83 44.0289 164.896 43.8543 164.896 43.6256V43.2371C164.896 43.0108 164.83 42.8362 164.7 42.7133C164.569 42.5903 164.387 42.5313 164.153 42.5313H162.686V44.3314H164.153Z" fill="white"/>
<path d="M170.202 41.1787H169.389V47.9414H170.202V41.1787Z" fill="white"/>
<path d="M234.812 26.4333C232.217 16.4418 224.805 12.6006 224.805 12.6006C224.805 12.6006 217.387 16.4418 214.793 26.4333C214.603 27.1612 215.553 27.6063 215.997 26.9718C217.895 24.2127 221.164 20.2116 224.805 18.4681C228.477 20.2141 231.71 24.2102 233.645 26.9718H233.64C234.051 27.6063 234.999 27.1612 234.812 26.4333Z" fill="white"/>
<path d="M217.233 10.5055C217.233 10.5055 211.342 14.2803 207.728 19.5478C207.285 20.1822 208.107 20.9421 208.71 20.4355L208.705 20.4306C212.223 17.4796 218.336 12.8466 223.345 11.5801C223.345 11.5801 220.142 4.12157 209.089 7.38977C209.089 7.38977 204.656 9.16773 202.755 11.8974C202.339 12.4359 202.913 13.1688 203.543 12.8835C206.111 11.7744 211.467 9.86858 217.233 10.503V10.5055Z" fill="white"/>
<path d="M246.877 11.9613C245.107 9.3595 240.959 7.58154 240.543 7.39465H240.451C229.425 4.12645 226.223 11.585 226.223 11.585C231.2 12.8244 237.254 17.423 240.769 20.342L240.764 20.3371C241.367 20.8437 242.189 20.0838 241.746 19.4494C238.007 14.2458 231.83 10.503 231.83 10.503C237.694 9.87101 243.428 11.8383 246.086 12.9474C246.685 13.2007 247.258 12.4998 246.874 11.9613H246.877Z" fill="white"/>
<path d="M215.293 1.20974C217.828 2.92376 222.611 6.38132 224.797 9.61755C227.015 6.38132 231.799 2.9213 234.334 1.20974C234.905 0.828574 234.588 -0.0616352 233.891 0.00230253C229.822 0.442489 224.849 4.14842 224.8 4.1853C224.751 4.14842 219.807 0.442489 215.709 0.00230253C215.039 -0.0616352 214.694 0.826115 215.293 1.20974Z" fill="white"/>
<path d="M213.503 45.3683C213.158 45.6684 212.981 46.0864 212.981 46.5045C212.981 46.8906 213.134 47.2865 213.441 47.5816C213.99 48.1054 214.842 48.1349 215.433 47.6603C217.959 45.6167 220.622 43.7084 223.416 41.9772C222.407 41.3845 221.38 40.8091 220.344 40.2656C217.934 41.7952 215.649 43.5019 213.5 45.3659L213.503 45.3683Z" fill="white"/>
<path d="M220.344 40.2656L220.346 40.2679L220.349 40.2656H220.344Z" fill="white"/>
<path d="M243.137 31.89C236.614 32.7901 230.44 34.7943 224.807 37.7034C219.175 34.7967 213.001 32.7925 206.475 31.8851C205.982 31.8162 205.534 32.1925 205.512 32.6868C205.493 33.0975 205.771 33.4614 206.172 33.5524L206.177 33.5573C216.622 35.9697 226.107 41.1364 234.184 47.6605C234.775 48.14 235.627 48.1081 236.176 47.5818C236.811 46.9695 236.784 45.9465 236.116 45.3661C233.564 43.1504 230.811 41.1536 227.892 39.4125C232.771 36.8378 237.975 34.8189 243.44 33.5549C243.831 33.4663 244.105 33.1171 244.105 32.7212V32.6892C244.083 32.1925 243.635 31.8138 243.142 31.8876L243.137 31.89Z" fill="white"/>
<path d="M224.293 22.321C222.57 26.8754 224.763 35.1405 224.763 35.1405C224.763 35.1405 227.035 26.8704 225.312 22.321C225.154 21.8513 224.477 21.8513 224.293 22.321Z" fill="white"/>
<path d="M4.20217 21.4484C5.74814 21.4484 6.88545 21.0352 7.61166 20.209C8.34034 19.3827 8.70467 18.0867 8.70467 16.3235V6.80664H6.91007V16.3235C6.91007 16.8227 6.87315 17.2432 6.79683 17.5875C6.72298 17.9318 6.60236 18.2097 6.43742 18.4236C6.27248 18.6376 6.05585 18.7925 5.78752 18.8859C5.5192 18.9794 5.18932 19.0286 4.80037 19.0286H3.60397C2.94669 19.0286 2.42973 18.8564 2.05554 18.5146C1.68136 18.1703 1.49427 17.6859 1.49427 17.0588C1.49427 16.7391 1.55089 16.3629 1.66659 15.9227C1.77983 15.485 1.93738 15.0521 2.13678 14.6218L0.701593 14.2037C0.482499 14.7325 0.310178 15.2784 0.18463 15.8391C0.0615432 16.4022 0 16.9063 0 17.3539C0 18.6597 0.354489 19.668 1.061 20.3811C1.76998 21.0918 2.81622 21.4484 4.20217 21.4484Z" fill="white"/>
<path d="M29.0014 17.2064L31.1997 16.535L30.631 14.5185L29.1811 14.9218C28.9423 14.9907 28.6764 15.0472 28.3884 15.0866C28.0979 15.1259 27.8247 15.1456 27.5662 15.1456C26.7883 15.1456 26.1851 15.0079 25.7568 14.7349C25.3285 14.462 25.1143 14.0685 25.1143 13.5619C25.1143 13.1439 25.2694 12.8217 25.5771 12.5979C25.8848 12.3741 26.3205 12.261 26.8793 12.261C27.2781 12.261 27.6228 12.3422 27.9108 12.5069C28.1988 12.6717 28.4549 12.9274 28.674 13.2766L30.2741 11.8577C29.9344 11.2897 29.5109 10.8421 29.0038 10.5126C28.4942 10.183 27.837 10.0183 27.0295 10.0183C26.5396 10.0183 26.0891 10.1093 25.6756 10.2937C25.262 10.4781 24.9026 10.7314 24.5998 11.056C24.2945 11.3806 24.0557 11.7569 23.881 12.1848C23.7062 12.6127 23.62 13.0725 23.62 13.5594C23.62 13.9382 23.6717 14.2923 23.7776 14.6193C23.881 14.9489 24.0336 15.2563 24.233 15.5464V15.6227H23.0366H22.5886C22.2587 15.6227 22.0125 15.5735 21.8476 15.4727C21.6826 15.3718 21.5448 15.1677 21.4365 14.8603L20.2548 11.693H18.2805L17.3229 12.2463C15.9271 13.0529 15.228 14.0587 15.228 15.2636V15.4431C15.228 15.5022 15.2329 15.5636 15.2428 15.6227H13.4925C13.0543 15.6227 12.7441 15.5489 12.5644 15.4063C12.3847 15.2612 12.2961 14.9661 12.2961 14.5161V6.80664H10.5015V14.8161C10.5015 15.8907 10.7452 16.6678 11.2351 17.1473C11.7249 17.6269 12.4708 17.8654 13.4777 17.8654H13.4925C14.4107 17.8654 15.0089 17.349 15.2871 16.3112H15.4225C15.6022 16.7588 15.9099 17.1301 16.3505 17.4252C16.7887 17.7179 17.3721 17.8654 18.1008 17.8654H20.0013V16.6112L20.0899 16.5965C20.3385 17.0342 20.6536 17.3564 21.0327 17.5605C21.4118 17.7646 21.9313 17.8679 22.5886 17.8679C23.4452 17.8679 24.1838 17.858 24.8016 17.8384C25.4195 17.8187 25.9685 17.7843 26.4461 17.7351C26.9237 17.6859 27.3643 17.617 27.7631 17.5334C28.1619 17.4498 28.5755 17.3416 29.0038 17.2113L29.0014 17.2064ZM17.4534 15.6227C17.2146 15.6227 17.0103 15.5833 16.8404 15.5022C16.6706 15.4235 16.5869 15.2735 16.5869 15.0546C16.5869 14.8751 16.6656 14.7177 16.8256 14.5849C16.9857 14.4497 17.2244 14.3193 17.5445 14.189L18.9058 13.6504L19.6542 15.6227H17.4559H17.4534Z" fill="white"/>
<path d="M35.5078 6.71616H34.4C33.7132 6.71616 33.3685 6.5514 33.3685 6.22187C33.3685 6.11367 33.4202 6.01776 33.5261 5.93907C33.6295 5.86038 33.7673 5.81857 33.9372 5.81857C34.2449 5.81857 34.5206 5.93907 34.7594 6.17761L35.4782 5.17673C35.2788 4.96771 35.045 4.80295 34.7742 4.68245C34.5034 4.56195 34.2252 4.50293 33.9372 4.50293C33.4596 4.50293 33.0682 4.64064 32.7629 4.91361C32.4577 5.18657 32.3075 5.53331 32.3075 5.95136C32.3075 6.25876 32.406 6.52434 32.6078 6.74321L32.5931 6.81698H31.9653V8.02688H35.5102V6.71124L35.5078 6.71616Z" fill="white"/>
<path d="M38.8729 15.7727C38.8729 15.5538 38.8532 15.3472 38.8139 15.153C38.7745 14.9587 38.7105 14.7718 38.6194 14.5923C38.5308 14.4128 38.4101 14.2332 38.26 14.0537C38.1098 13.8742 37.9301 13.6849 37.7208 13.4857L37.1965 13.0086C37.4156 12.8094 37.6051 12.6176 37.7652 12.4332C37.9252 12.2487 38.0507 12.0569 38.1467 11.8577C38.2403 11.6585 38.3117 11.4495 38.356 11.2306C38.4003 11.0118 38.4224 10.7732 38.4224 10.5126V6.80664H36.6278V10.5126C36.6278 10.8814 36.5909 11.1765 36.5146 11.4028C36.4407 11.6266 36.3177 11.8331 36.1478 12.0225L32.5586 8.64608L31.2563 10.0502L34.7274 13.3086L32.1549 15.6251V17.8654H36.8075C37.1079 17.8654 37.3811 17.8138 37.6298 17.708C37.8784 17.6023 38.095 17.4572 38.2797 17.2678C38.4643 17.0785 38.6095 16.8572 38.7129 16.6039C38.8188 16.3506 38.8705 16.0727 38.8705 15.7751L38.8729 15.7727ZM34.1612 15.6227L34.1464 15.5636L35.7318 14.2332L37.2285 15.6227H34.1612Z" fill="white"/>
<path d="M42.0881 6.80664H40.2935V17.8629H42.0881V6.80664Z" fill="white"/>
<path d="M49.6874 16.0259C49.6874 15.33 49.6185 14.7005 49.4781 14.1447C49.3378 13.5889 49.136 13.1168 48.8726 12.7332C48.6091 12.3495 48.2842 12.0569 47.9002 11.8528C47.5161 11.6487 47.0804 11.5479 46.5905 11.5479C46.1523 11.5479 45.7462 11.6388 45.372 11.8233C44.9978 12.0077 44.6728 12.261 44.3996 12.5856C44.1263 12.9102 43.9097 13.2938 43.7571 13.7365C43.602 14.1791 43.5257 14.6611 43.5257 15.1775C43.5257 16.0235 43.7522 16.685 44.2051 17.1572C44.6581 17.6293 45.2883 17.8678 46.0982 17.8678C46.6078 17.8678 47.0287 17.7473 47.361 17.5088C47.6958 17.2703 47.9371 16.8965 48.0873 16.3874H48.1759V16.776C48.1759 17.4941 47.8706 18.0793 47.2626 18.5318C46.6545 18.9843 45.6969 19.2105 44.3897 19.2105H43.4321V21.4508H44.5399C46.2237 21.4508 47.5038 20.9737 48.3753 20.0171C49.2467 19.0605 49.6849 17.7326 49.6849 16.0284L49.6874 16.0259ZM47.5334 15.5686C47.2749 15.603 46.9499 15.6202 46.561 15.6202H46.2459C45.8668 15.6202 45.5689 15.5636 45.3498 15.4481C45.1307 15.3349 45.0199 15.1431 45.0199 14.8726C45.0199 14.5529 45.1529 14.2923 45.4163 14.0881C45.6797 13.884 46.0071 13.7808 46.3961 13.7808C46.8736 13.7808 47.2774 13.9283 47.6072 14.2209C47.9371 14.5136 48.1193 14.907 48.1611 15.394C48.0011 15.4751 47.7919 15.5317 47.5334 15.5661V15.5686Z" fill="white"/>
<path d="M56.9248 8.82303H57.2226C57.4811 8.82303 57.6928 8.74434 57.8577 8.58449C58.0227 8.42465 58.1039 8.17136 58.1039 7.82216C58.1039 7.47296 58.0227 7.21967 57.8577 7.05983C57.6928 6.89998 57.4811 6.82129 57.2226 6.82129H56.9248C56.6663 6.82129 56.4546 6.89998 56.2896 7.05983C56.1247 7.21967 56.0435 7.47296 56.0435 7.82216C56.0435 8.17136 56.1247 8.42465 56.2896 8.58449C56.4546 8.74434 56.6663 8.82303 56.9248 8.82303Z" fill="white"/>
<path d="M59.288 8.82303H59.5884C59.8469 8.82303 60.0586 8.74434 60.2235 8.58449C60.3884 8.42465 60.4697 8.17136 60.4697 7.82216C60.4697 7.47296 60.3884 7.21967 60.2235 7.05983C60.0586 6.89998 59.8469 6.82129 59.5884 6.82129H59.288C59.0296 6.82129 58.8178 6.89998 58.6529 7.05983C58.488 7.21967 58.4067 7.47296 58.4067 7.82216C58.4067 8.17136 58.488 8.42465 58.6529 8.58449C58.8178 8.74434 59.0296 8.82303 59.288 8.82303Z" fill="white"/>
<path d="M65.4668 21.075C65.7253 21.075 65.937 20.9963 66.1019 20.8364C66.2668 20.6766 66.3481 20.4233 66.3481 20.0741C66.3481 19.7249 66.2668 19.4716 66.1019 19.3118C65.937 19.1519 65.7253 19.0732 65.4668 19.0732H65.1665C64.908 19.0732 64.6963 19.1519 64.5313 19.3118C64.3664 19.4716 64.2852 19.7249 64.2852 20.0741C64.2852 20.4233 64.3664 20.6766 64.5313 20.8364C64.6963 20.9963 64.908 21.075 65.1665 21.075H65.4668Z" fill="white"/>
<path d="M63.9848 20.0741C63.9848 19.7249 63.9036 19.4716 63.7386 19.3118C63.5737 19.1519 63.362 19.0732 63.1035 19.0732H62.8032C62.5447 19.0732 62.333 19.1519 62.168 19.3118C62.0031 19.4716 61.9219 19.7249 61.9219 20.0741C61.9219 20.4233 62.0031 20.6766 62.168 20.8364C62.333 20.9963 62.5447 21.075 62.8032 21.075H63.1035C63.362 21.075 63.5737 20.9963 63.7386 20.8364C63.9036 20.6766 63.9848 20.4233 63.9848 20.0741Z" fill="white"/>
<path d="M77.0935 17.4079C77.4874 17.7129 78.0635 17.8629 78.8217 17.8629H82.1721C82.7998 17.8629 83.3513 17.8014 83.8239 17.676C84.2966 17.5506 84.6904 17.3243 85.0055 16.9972C85.3206 16.6677 85.557 16.2152 85.717 15.6373C85.877 15.0594 85.9558 14.3168 85.9558 13.4118C85.9558 11.9585 85.6825 10.8223 85.1409 10.0059C84.5969 9.18947 83.8362 8.78125 82.8589 8.78125C82.4207 8.78125 82.0145 8.87224 81.6404 9.05667C81.2662 9.24111 80.9412 9.4944 80.668 9.81901C80.3947 10.1436 80.1805 10.5272 80.0255 10.9699C79.8704 11.4125 79.7941 11.8945 79.7941 12.4109C79.7941 13.1585 80.0205 13.7438 80.4735 14.1668C80.9265 14.5897 81.5591 14.8012 82.3666 14.8012C83.403 14.8012 84.0652 14.4078 84.3556 13.6208H84.4443V14.3069C84.4443 14.5652 84.3901 14.7791 84.2793 14.9488C84.1685 15.1185 84.0184 15.2513 83.8239 15.3521C83.6294 15.4529 83.3906 15.5218 83.1051 15.5611C82.8195 15.6005 82.5093 15.6201 82.1696 15.6201H79.2672H78.669C77.9699 15.6201 77.6228 15.2709 77.6228 14.575V13.0356H75.9784V14.575C75.9784 14.993 75.9021 15.298 75.747 15.4873C75.5919 15.6767 75.3851 15.7726 75.1266 15.7726H74.9765C74.6564 15.7726 74.4373 15.6791 74.3192 15.4873C74.1985 15.298 74.1395 14.993 74.1395 14.575V13.6331H72.495V14.575C72.495 15.0447 72.399 15.3693 72.2119 15.5537C72.0224 15.7382 71.7122 15.8292 71.2839 15.8292C71.0254 15.8292 70.7694 15.7947 70.5207 15.7234C70.2721 15.6546 70.0259 15.5636 69.7871 15.4554L70.3115 14.3487L68.832 13.6307L68.2485 14.8406C68.1082 15.1308 67.9187 15.3324 67.6799 15.4455C67.4411 15.5611 67.0866 15.6177 66.6189 15.6177H66.0059C65.3068 15.6177 64.9597 15.2685 64.9597 14.5725V12.4355H63.3152V14.5725C63.3152 15.2709 62.9164 15.6177 62.1188 15.6177H61.2228C60.8929 15.6177 60.6615 15.5586 60.5286 15.4381C60.3932 15.3201 60.3267 15.1086 60.3267 14.8111V10.0157H58.5321V10.8371L56.8581 11.6732C56.0901 12.0519 55.4796 12.497 55.0266 13.011C54.5736 13.5249 54.3472 14.1889 54.3472 15.0053C54.3472 15.7037 54.5269 16.2423 54.8863 16.6259C55.2457 17.0095 55.7848 17.2014 56.5012 17.2014C56.8015 17.2014 57.06 17.1694 57.2791 17.1054C57.4982 17.0415 57.6877 16.9358 57.8477 16.7907C58.0078 16.6456 58.1382 16.4538 58.2441 16.2152C58.3475 15.9767 58.441 15.6816 58.5198 15.3349H58.6084V15.4086C58.6084 16.1661 58.8177 16.7612 59.2362 17.194C59.6547 17.6268 60.3169 17.8481 61.2252 17.8579C61.8727 17.8579 62.3675 17.6956 62.7047 17.3735C63.0445 17.0489 63.2832 16.5398 63.4236 15.8414H63.5122C63.6525 16.5398 63.9282 17.0489 64.3418 17.3735C64.7554 17.6981 65.3609 17.8579 66.1585 17.8579C66.7666 17.8579 67.2663 17.8112 67.6627 17.7153C68.0565 17.6219 68.4086 17.4301 68.7163 17.1399L69.0166 17.3194C69.4745 17.5874 69.8462 17.7743 70.1318 17.8801C70.4149 17.9858 70.7029 18.0375 70.9909 18.0375C71.439 18.0375 71.8008 17.8702 72.0765 17.5383C72.3498 17.2038 72.527 16.68 72.6083 15.9619H72.6969C72.8077 16.68 73.0046 17.2038 73.2951 17.5383C73.5831 17.8727 73.9918 18.0375 74.521 18.0375C75.0183 18.0375 75.4196 17.8702 75.7174 17.5383C76.0178 17.2038 76.195 16.68 76.2565 15.9619H76.3452C76.456 16.6185 76.7071 17.1005 77.1009 17.403L77.0935 17.4079ZM83.787 12.8044C83.5285 12.8388 83.2085 12.856 82.8294 12.856H82.5143C82.1352 12.856 81.8348 12.7995 81.6157 12.6839C81.3966 12.5683 81.2859 12.379 81.2859 12.1085C81.2859 11.7912 81.4188 11.5281 81.6822 11.324C81.9456 11.1199 82.273 11.0191 82.662 11.0191C83.1199 11.0191 83.5113 11.1666 83.8362 11.4593C84.1612 11.7519 84.3532 12.1454 84.4123 12.6323C84.2522 12.711 84.043 12.77 83.7845 12.8044H83.787ZM58.5247 14.2012C58.5247 14.4914 58.4115 14.6906 58.1875 14.7988C57.9634 14.9094 57.5622 14.9635 56.9837 14.9635C56.5455 14.9635 56.2427 14.9119 56.0778 14.8061C55.9128 14.7029 55.8316 14.5258 55.8316 14.275C55.8316 14.1348 55.8636 14.0118 55.9301 13.9012C55.9941 13.7905 56.095 13.6848 56.2279 13.579C56.3633 13.4758 56.5283 13.3725 56.7227 13.2741C56.9172 13.1757 57.1486 13.0602 57.4169 12.9298L58.5247 12.406V14.1987V14.2012Z" fill="white"/>
<path d="M82.7114 7.58377H83.0092C83.2677 7.58377 83.4794 7.50508 83.6444 7.34524C83.8093 7.18539 83.8905 6.9321 83.8905 6.5829C83.8905 6.2337 83.8093 5.98041 83.6444 5.82057C83.4794 5.66072 83.2677 5.58203 83.0092 5.58203H82.7114C82.4529 5.58203 82.2412 5.66318 82.0763 5.82057C81.9113 5.98041 81.8301 6.2337 81.8301 6.5829C81.8301 6.9321 81.9113 7.18539 82.0763 7.34524C82.2412 7.50508 82.4529 7.58377 82.7114 7.58377Z" fill="white"/>
<path d="M93.1367 11.243H93.437C93.6955 11.243 93.9072 11.1643 94.0721 11.0044C94.2371 10.8446 94.3183 10.5913 94.3183 10.2421C94.3183 9.89288 94.2371 9.63959 94.0721 9.47975C93.9072 9.3199 93.6955 9.24121 93.437 9.24121H93.1367C92.8782 9.24121 92.6665 9.3199 92.5015 9.47975C92.3366 9.63959 92.2554 9.89288 92.2554 10.2421C92.2554 10.5913 92.3366 10.8446 92.5015 11.0044C92.6665 11.1643 92.8782 11.243 93.1367 11.243Z" fill="white"/>
<path d="M96.8911 11.243H97.1914C97.4499 11.243 97.6616 11.1643 97.8265 11.0044C97.9915 10.8446 98.0727 10.5913 98.0727 10.2421C98.0727 9.89288 97.9915 9.63959 97.8265 9.47975C97.6616 9.3199 97.4499 9.24121 97.1914 9.24121H96.8911C96.6326 9.24121 96.4209 9.3199 96.2559 9.47975C96.091 9.63959 96.0098 9.89288 96.0098 10.2421C96.0098 10.5913 96.091 10.8446 96.2559 11.0044C96.4209 11.1643 96.6326 11.243 96.8911 11.243Z" fill="white"/>
<path d="M99.2543 11.243H99.5547C99.8132 11.243 100.025 11.1643 100.19 11.0044C100.355 10.8446 100.436 10.5913 100.436 10.2421C100.436 9.89288 100.355 9.63959 100.19 9.47975C100.025 9.3199 99.8132 9.24121 99.5547 9.24121H99.2543C98.9959 9.24121 98.7842 9.3199 98.6192 9.47975C98.4543 9.63959 98.373 9.89288 98.373 10.2421C98.373 10.5913 98.4543 10.8446 98.6192 11.0044C98.7842 11.1643 98.9959 11.243 99.2543 11.243Z" fill="white"/>
<path d="M106.282 17.8634C107.279 17.8536 107.986 17.5954 108.4 17.0864C108.813 16.5773 109.02 15.7904 109.02 14.7256V6.80715H107.225V14.7256C107.225 15.0354 107.164 15.2617 107.038 15.4043C106.913 15.5494 106.662 15.6207 106.282 15.6207H105.101C104.402 15.6207 104.055 15.2715 104.055 14.5756V6.80715H102.26V14.5756C102.26 15.274 101.861 15.6207 101.064 15.6207H100.091C99.3921 15.6207 99.045 15.2715 99.045 14.5756V12.4386H97.4006V14.5756C97.4006 15.274 97.0018 15.6207 96.2042 15.6207H95.1579C94.4588 15.6207 94.1117 15.2715 94.1117 14.5756V12.4386H92.4673V14.5756C92.4673 15.274 92.0685 15.6207 91.2709 15.6207H90.3748C89.9366 15.6207 89.6264 15.5469 89.4467 15.4043C89.267 15.2592 89.1784 14.9641 89.1784 14.5141V6.80469H87.3838V14.8141C87.3838 15.8888 87.6275 16.6658 88.1174 17.1454C88.6073 17.6249 89.3532 17.8634 90.36 17.8634H90.3748C91.0222 17.8634 91.517 17.7011 91.8543 17.379C92.194 17.0544 92.4328 16.5454 92.5731 15.847H92.6617C92.8021 16.5454 93.0778 17.0544 93.4913 17.379C93.9049 17.7036 94.5105 17.8634 95.3081 17.8634C95.9555 17.8634 96.4503 17.7011 96.7876 17.379C97.1273 17.0544 97.3661 16.5454 97.5064 15.847H97.595C97.7354 16.5454 98.0111 17.0544 98.4246 17.379C98.8382 17.7036 99.4438 17.8634 100.241 17.8634C100.869 17.8634 101.347 17.7011 101.677 17.379C102.006 17.0544 102.235 16.5454 102.363 15.847H102.452C102.592 16.5454 102.875 17.0544 103.304 17.379C103.732 17.7036 104.355 17.8634 105.172 17.8634H106.278H106.282Z" fill="white"/>
<path d="M117.739 24.4217H118.04C118.298 24.4217 118.51 24.3405 118.675 24.1831C118.84 24.0233 118.921 23.77 118.921 23.4208C118.921 23.0716 118.84 22.8183 118.675 22.6585C118.51 22.4986 118.298 22.4199 118.04 22.4199H117.739C117.481 22.4199 117.269 22.4986 117.104 22.6585C116.939 22.8183 116.858 23.0716 116.858 23.4208C116.858 23.77 116.939 24.0233 117.104 24.1831C117.269 24.343 117.481 24.4217 117.739 24.4217Z" fill="white"/>
<path d="M123.17 20.3122C123.648 19.9434 124.014 19.4909 124.271 18.9523C124.524 18.4138 124.652 17.8015 124.652 17.1154C124.652 16.4981 124.531 16.0284 124.293 15.7038C124.054 15.3792 123.65 15.1677 123.082 15.0694L121.213 14.7546C120.644 14.6562 120.223 14.5333 119.95 14.3882C119.677 14.2431 119.539 14.0316 119.539 13.7537C119.539 13.5447 119.593 13.3406 119.704 13.1414C119.815 12.9422 119.958 12.7651 120.137 12.6102C120.317 12.4553 120.521 12.3323 120.75 12.2364C120.979 12.143 121.218 12.0938 121.469 12.0938C121.878 12.0938 122.217 12.1995 122.486 12.4086C122.754 12.6176 122.963 12.8512 123.113 13.1119L124.714 11.693C124.426 11.1249 124.044 10.6773 123.569 10.3478C123.096 10.0183 122.545 9.85352 121.917 9.85352C121.348 9.85352 120.827 9.99123 120.354 10.2642C119.881 10.5372 119.473 10.8888 119.128 11.3167C118.783 11.7446 118.517 12.2217 118.328 12.743C118.138 13.2668 118.045 13.7808 118.045 14.2898C118.045 15.0571 118.284 15.6546 118.764 16.0825C119.241 16.5104 119.94 16.8006 120.856 16.9481L123.146 17.3367C123.067 17.8752 122.725 18.2908 122.121 18.5835C121.518 18.8761 120.703 19.0237 119.677 19.0237H118.481C117.533 19.0237 116.797 18.8515 116.267 18.5097C115.738 18.1654 115.475 17.681 115.475 17.0539C115.475 16.7342 115.531 16.3579 115.647 15.9178C115.76 15.48 115.918 15.0472 116.117 14.6169L114.682 14.1988C114.463 14.7275 114.291 15.2735 114.165 15.8342C114.04 16.3973 113.978 16.9039 113.978 17.3514C113.978 17.9982 114.094 18.5736 114.323 19.0778C114.552 19.5819 114.886 20.0098 115.325 20.3639C115.763 20.718 116.299 20.9861 116.932 21.1705C117.565 21.3549 118.281 21.4459 119.079 21.4459C119.955 21.4459 120.738 21.35 121.427 21.1557C122.114 20.9615 122.697 20.6787 123.178 20.3122H123.17Z" fill="white"/>
<path d="M120.403 24.4217C120.661 24.4217 120.873 24.3405 121.038 24.1831C121.203 24.0233 121.284 23.77 121.284 23.4208C121.284 23.0716 121.203 22.8183 121.038 22.6585C120.873 22.4986 120.661 22.4199 120.403 22.4199H120.102C119.844 22.4199 119.632 22.4986 119.467 22.6585C119.302 22.8183 119.221 23.0716 119.221 23.4208C119.221 23.77 119.302 24.0233 119.467 24.1831C119.632 24.343 119.844 24.4217 120.102 24.4217H120.403Z" fill="white"/>
<path d="M132.158 13.808C132.089 13.4834 131.973 13.1686 131.813 12.8588C131.653 12.5514 131.444 12.2366 131.185 11.9169C130.927 11.5997 130.612 11.2554 130.242 10.8865L129.031 9.69141L127.505 11.3341L128.987 12.7088C129.287 12.9867 129.538 13.2326 129.743 13.4416C129.947 13.6506 130.114 13.84 130.245 14.0097C130.375 14.1793 130.469 14.3318 130.528 14.4646C130.587 14.5999 130.619 14.7253 130.619 14.8458C130.619 15.3646 130.284 15.6229 129.617 15.6229H127.328V14.6663H125.607V15.6671C125.607 16.4344 125.792 16.9926 126.161 17.3418C126.53 17.691 127.064 17.8656 127.761 17.8656H129.467C130.353 17.8656 131.042 17.6025 131.53 17.0738C132.017 16.545 132.263 15.8048 132.263 14.8482C132.263 14.4794 132.229 14.1326 132.158 13.8105V13.808Z" fill="white"/>
<path d="M163.276 17.0859C163.69 16.5768 163.897 15.7899 163.897 14.7251V6.80664H162.102V14.7251C162.102 15.0349 162.041 15.2612 161.915 15.4038C161.789 15.5489 161.538 15.6202 161.159 15.6202H159.904C159.205 15.6202 158.857 15.271 158.857 14.5751V13.0356H157.213V14.5751C157.213 14.9931 157.137 15.2981 156.982 15.4874C156.827 15.6768 156.62 15.7727 156.361 15.7727H156.211C155.891 15.7727 155.672 15.6792 155.554 15.4874C155.433 15.2981 155.374 14.9931 155.374 14.5751V13.6332H153.73V14.5751C153.73 15.0448 153.636 15.3694 153.447 15.5538C153.257 15.7382 152.947 15.8292 152.519 15.8292C152.26 15.8292 152.004 15.7948 151.755 15.7235C151.507 15.6522 151.263 15.5636 151.022 15.4554L151.546 14.3488L150.064 13.6308L149.481 14.8407C149.34 15.1308 149.151 15.3325 148.912 15.4456C148.673 15.5612 148.319 15.6177 147.851 15.6177H146.012L145.997 15.5735C146.236 15.3841 146.438 15.2095 146.603 15.0497C146.768 14.8898 146.903 14.7226 147.007 14.5505C147.113 14.3759 147.189 14.1865 147.238 13.9824C147.287 13.7783 147.312 13.5422 147.312 13.2717C147.312 12.3963 147.044 11.752 146.505 11.3438C145.965 10.9355 145.119 10.7314 143.962 10.7314C143.432 10.7314 142.893 10.7929 142.339 10.9183C141.785 11.0437 141.261 11.2208 140.761 11.4495V13.766L142.211 15.544L142.182 15.6202H139.474C139.425 14.3341 139.134 13.3332 138.607 12.6176C138.078 11.8995 137.362 11.5429 136.453 11.5429C136.015 11.5429 135.609 11.6339 135.235 11.8184C134.861 12.0028 134.538 12.2561 134.262 12.5807C133.989 12.9053 133.775 13.2889 133.62 13.7316C133.465 14.1742 133.388 14.6562 133.388 15.1726C133.388 16.0186 133.615 16.6801 134.068 17.1523C134.521 17.6244 135.154 17.8629 135.961 17.8629H137.696C137.458 18.281 137.052 18.6105 136.478 18.8491C135.904 19.0876 135.144 19.2081 134.196 19.2081H133.238V21.4484H134.346C135.712 21.4484 136.805 21.1361 137.63 20.5139C138.452 19.8917 139.004 19.0064 139.282 17.8629H141.003C141.542 17.8629 142.064 17.8015 142.573 17.6761C143.083 17.5506 143.565 17.3441 144.023 17.0563C144.481 17.3465 144.998 17.5531 145.572 17.6761C146.145 17.8015 146.701 17.8629 147.238 17.8629H147.388C147.996 17.8629 148.499 17.8162 148.892 17.7203C149.286 17.6269 149.638 17.4351 149.946 17.1449L150.246 17.3244C150.704 17.5924 151.076 17.7793 151.362 17.8851C151.645 17.9908 151.933 18.0425 152.221 18.0425C152.669 18.0425 153.031 17.8752 153.304 17.5433C153.577 17.2088 153.754 16.685 153.836 15.9669H153.924C154.033 16.685 154.232 17.2088 154.522 17.5433C154.81 17.8777 155.219 18.0425 155.748 18.0425C156.246 18.0425 156.644 17.8752 156.945 17.5433C157.245 17.2088 157.425 16.685 157.484 15.9669H157.575C157.683 16.6235 157.937 17.1055 158.331 17.408C158.725 17.7129 159.301 17.8629 160.059 17.8629H161.167C162.164 17.8531 162.87 17.5949 163.284 17.0859H163.276ZM137.977 15.6227H136.109C135.73 15.6227 135.429 15.5661 135.21 15.4505C134.991 15.3374 134.88 15.1456 134.88 14.8751C134.88 14.5554 135.013 14.2947 135.277 14.0906C135.54 13.8865 135.867 13.7832 136.256 13.7832C136.754 13.7832 137.165 13.948 137.49 14.2775C137.815 14.607 137.977 15.0398 137.977 15.5784V15.6227ZM145.776 14.0464C145.751 14.1201 145.709 14.1964 145.648 14.2701C145.589 14.3464 145.508 14.4226 145.409 14.5013C145.311 14.58 145.19 14.6808 145.05 14.8013L144.136 15.5489L142.192 13.2643V13.1734C142.421 13.1242 142.694 13.0799 143.014 13.0381C143.334 12.9988 143.646 12.9791 143.957 12.9791C144.643 12.9791 145.126 13.0381 145.399 13.1586C145.672 13.2791 145.81 13.4832 145.81 13.7709C145.81 13.8816 145.798 13.9726 145.773 14.0464H145.776Z" fill="white"/>
<path d="M167.486 6.80664H165.691V17.8629H167.486V6.80664Z" fill="white"/>
<path d="M174.216 11.8426H174.517C174.775 11.8426 174.987 11.7639 175.152 11.604C175.317 11.4442 175.398 11.1909 175.398 10.8417C175.398 10.4925 175.317 10.2392 175.152 10.0794C174.987 9.91951 174.775 9.84082 174.517 9.84082H174.216C173.958 9.84082 173.746 9.91951 173.581 10.0794C173.416 10.2392 173.335 10.4925 173.335 10.8417C173.335 11.1909 173.416 11.4442 173.581 11.604C173.746 11.7639 173.958 11.8426 174.216 11.8426Z" fill="white"/>
<path d="M182.114 14.7844C182.114 14.4451 182.072 14.1401 181.986 13.8647C181.899 13.5918 181.766 13.3286 181.582 13.0802C181.397 12.8319 181.151 12.5909 180.841 12.3548C180.531 12.1212 180.154 11.8802 179.704 11.6294L178.042 10.7023V10.6137L184.474 8.59723V6.625L177.296 8.89725V12.8417L179.704 14.1426C180.073 14.3418 180.316 14.5066 180.437 14.6369C180.558 14.7672 180.617 14.9197 180.617 15.0992C180.617 15.2984 180.553 15.4361 180.422 15.5099C180.292 15.5837 180.058 15.623 179.718 15.623H175.77C175.75 15.4435 175.728 15.2541 175.703 15.0549C175.679 14.8558 175.647 14.6467 175.607 14.4279L175.383 13.0384L173.754 13.2917L174.069 15.2787C174.118 15.5664 174.16 15.8394 174.189 16.0927C174.219 16.346 174.234 16.5894 174.234 16.8181C174.243 17.6739 174.037 18.2863 173.613 18.6551C173.19 19.024 172.523 19.2084 171.617 19.2084H171.019V21.4487H171.632C172.818 21.4487 173.763 21.1266 174.465 20.4847C175.169 19.8429 175.605 18.9674 175.775 17.8633H179.125C180.191 17.8633 180.957 17.6149 181.422 17.1157C181.885 16.619 182.118 15.8419 182.118 14.7844H182.114Z" fill="white"/>
<path d="M191.478 18.6253L192.227 19.0286L193.288 17.0563L192.554 16.653C192.195 16.4539 191.874 16.2891 191.589 16.1588C191.303 16.0284 191.028 15.9251 190.759 15.844V6.80664H188.965V15.6227H186.693C186.673 15.4431 186.651 15.2538 186.626 15.0546C186.601 14.8554 186.569 14.6464 186.53 14.4275L186.306 13.0381L184.676 13.2914L184.991 15.2784C185.041 15.5661 185.083 15.8391 185.112 16.0924C185.142 16.3457 185.156 16.5891 185.156 16.8178C185.166 17.6736 184.959 18.2859 184.536 18.6548C184.113 19.0237 183.446 19.2081 182.54 19.2081H181.941V21.4484H182.554C183.741 21.4484 184.686 21.1262 185.388 20.4844C186.092 19.8426 186.528 18.9671 186.697 17.8629H188.792C189.051 17.8629 189.282 17.8728 189.487 17.8925C189.691 17.9121 189.895 17.9515 190.1 18.013C190.304 18.072 190.516 18.1531 190.735 18.2515C190.954 18.3523 191.202 18.4753 191.483 18.6253H191.478Z" fill="white"/>
<path d="M195.53 6.80664H193.735V17.8629H195.53V6.80664Z" fill="white"/>
<path d="M2.91213 30.3017L2.58472 30.255C2.22531 30.2083 1.97422 30.1247 1.83144 30.0091C1.68866 29.8935 1.61726 29.7484 1.61726 29.5714C1.61726 29.3771 1.68619 29.2172 1.82651 29.0894C1.96683 28.9615 2.17362 28.8976 2.44687 28.8976C2.70289 28.8976 2.9466 28.9369 3.18046 29.0156C3.41433 29.0943 3.65065 29.2123 3.88698 29.3722C3.93621 29.4017 3.97806 29.3943 4.01499 29.3451L4.57134 28.5164C4.61319 28.4623 4.60827 28.4156 4.55411 28.3811C4.29316 28.1795 3.97806 28.0221 3.61373 27.9065C3.24939 27.7909 2.86044 27.7344 2.44687 27.7344C2.11207 27.7344 1.80928 27.7786 1.53849 27.8721C1.2677 27.9631 1.0363 28.091 0.844282 28.2557C0.652267 28.4205 0.504564 28.6197 0.401171 28.8533C0.297778 29.0869 0.246082 29.3476 0.246082 29.6328C0.246082 30.1861 0.415941 30.614 0.753198 30.914C1.09046 31.2141 1.57542 31.4083 2.20808 31.4944L2.53549 31.5387C2.90721 31.5879 3.15831 31.669 3.2937 31.7846C3.42664 31.9002 3.4931 32.0477 3.4931 32.2321C3.4931 32.451 3.40694 32.6281 3.23216 32.7658C3.05984 32.901 2.80874 32.9699 2.47887 32.9699C2.149 32.9699 1.84867 32.9035 1.57542 32.7732C1.30216 32.6428 1.06091 32.4953 0.854129 32.3305C0.799971 32.2887 0.753198 32.2912 0.716272 32.3403L0.0220648 33.1322C-0.0197845 33.1863 -0.0173228 33.2379 0.0319118 33.2871C0.152536 33.4027 0.30024 33.5109 0.475023 33.6142C0.647344 33.7175 0.839359 33.8085 1.04614 33.8822C1.25293 33.9585 1.47448 34.0175 1.70835 34.0642C1.94221 34.1085 2.181 34.1331 2.42471 34.1331C2.82597 34.1331 3.178 34.0839 3.48326 33.988C3.78851 33.8896 4.04207 33.7544 4.24393 33.5822C4.44579 33.4101 4.60088 33.2035 4.70427 32.9625C4.80767 32.724 4.85936 32.4633 4.85936 32.183C4.85936 31.6174 4.69443 31.1846 4.36702 30.8845C4.03961 30.5845 3.55218 30.3902 2.90721 30.3066L2.91213 30.3017Z" fill="white"/>
<path d="M8.76111 27.9211C8.74387 27.8596 8.70202 27.8301 8.64294 27.8301H7.49332C7.43177 27.8301 7.39238 27.8596 7.37515 27.9211L5.24083 33.9361C5.2236 33.9976 5.24329 34.0271 5.30484 34.0271H6.50124C6.56278 34.0271 6.60217 33.9976 6.6194 33.9361L6.96651 32.8516H9.13775L9.4947 33.9361C9.51193 33.9976 9.55132 34.0271 9.61286 34.0271H10.7994C10.861 34.0271 10.8807 33.9976 10.8634 33.9361L8.76603 27.9211H8.76111ZM7.33823 31.7131L8.03982 29.5441H8.0669L8.76849 31.7131H7.33576H7.33823Z" fill="white"/>
<path d="M15.996 27.8301H14.8366C14.775 27.8301 14.7455 27.8596 14.7455 27.9211V31.7844C14.7455 32.1557 14.6519 32.441 14.4624 32.6402C14.2728 32.8418 14.0242 32.9402 13.714 32.9402C13.4038 32.9402 13.1453 32.8393 12.9558 32.6402C12.7662 32.441 12.6727 32.1533 12.6727 31.7844V27.9211C12.6727 27.8596 12.6432 27.8301 12.5816 27.8301H11.4221C11.3606 27.8301 11.3311 27.8596 11.3311 27.9211V31.7475C11.3311 32.1311 11.3901 32.4705 11.5083 32.768C11.6265 33.0656 11.7914 33.314 12.0006 33.5156C12.2099 33.7148 12.461 33.8673 12.7539 33.9706C13.0469 34.0738 13.3644 34.1255 13.7115 34.1255C14.0587 34.1255 14.3762 34.0738 14.6642 33.9706C14.9523 33.8673 15.2034 33.7148 15.4126 33.5156C15.6218 33.314 15.7868 33.0656 15.9049 32.768C16.0231 32.4705 16.0822 32.1287 16.0822 31.7475V27.9211C16.0822 27.8596 16.0526 27.8301 15.9911 27.8301H15.996Z" fill="white"/>
<path d="M21.9116 29.8313C21.8968 29.7034 21.8771 29.5927 21.8574 29.4993C21.8353 29.4058 21.8131 29.3149 21.7885 29.2312C21.6359 28.764 21.3774 28.4148 21.013 28.1837C20.6487 27.9525 20.1908 27.8369 19.6443 27.8369H17.3352C17.2737 27.8369 17.2441 27.8664 17.2441 27.9279V33.9356C17.2441 33.9971 17.2737 34.0266 17.3352 34.0266H19.6443C20.1908 34.0266 20.6487 33.911 21.013 33.6798C21.3774 33.4487 21.6359 33.0995 21.7885 32.6322C21.8131 32.5462 21.8353 32.4576 21.8574 32.3642C21.8796 32.2707 21.8968 32.1601 21.9116 32.0322C21.9263 31.9043 21.9362 31.7519 21.9436 31.5773C21.9485 31.4027 21.9534 31.1863 21.9534 30.9305C21.9534 30.6748 21.951 30.4608 21.9436 30.2838C21.9362 30.1067 21.9263 29.9567 21.9116 29.8288V29.8313ZM20.5896 31.4396C20.5872 31.5773 20.5798 31.6904 20.5724 31.7814C20.5626 31.8724 20.5527 31.9486 20.5404 32.0052C20.5281 32.0617 20.5133 32.1134 20.4936 32.1552C20.4148 32.4109 20.2795 32.588 20.0924 32.6888C19.9028 32.7896 19.6542 32.8413 19.344 32.8413H18.6424C18.6055 32.8413 18.5882 32.8216 18.5882 32.7847V29.0763C18.5882 29.0394 18.6055 29.0222 18.6424 29.0222H19.344C19.6542 29.0222 19.9028 29.0739 20.0924 29.1722C20.2819 29.2731 20.4148 29.4526 20.4936 29.7059C20.5109 29.755 20.5281 29.8091 20.5404 29.8657C20.5527 29.9247 20.5626 29.9985 20.5724 30.0895C20.5822 30.1805 20.5872 30.2936 20.5896 30.4264C20.5921 30.5616 20.5946 30.7289 20.5946 30.9281C20.5946 31.1272 20.5946 31.2969 20.5896 31.4346V31.4396Z" fill="white"/>
<path d="M23.0857 27.8301H24.2427C24.292 27.8301 24.3338 27.8719 24.3338 27.9211V33.9361C24.3338 33.9878 24.292 34.0271 24.2427 34.0271H23.0857C23.0365 34.0271 22.9946 33.9853 22.9946 33.9361V27.9211C22.9946 27.8694 23.0365 27.8301 23.0857 27.8301Z" fill="white"/>
<path d="M28.8908 30.0189C28.9006 29.9206 28.9105 29.8419 28.9228 29.7779C28.9351 29.714 28.9499 29.655 28.9696 29.6009C29.036 29.3869 29.1468 29.2197 29.3019 29.0992C29.457 28.9762 29.6564 28.9172 29.9001 28.9172C30.161 28.9172 30.3703 28.9836 30.5254 29.1189C30.6805 29.2517 30.8011 29.4189 30.8848 29.6205C30.9143 29.682 30.9586 29.6968 31.0128 29.6648L32.0073 29.2172C32.0689 29.1976 32.0837 29.1631 32.0541 29.109C31.8769 28.6713 31.6061 28.3319 31.2368 28.0934C30.87 27.8549 30.4195 27.7344 29.8903 27.7344C29.361 27.7344 28.8785 27.8598 28.4994 28.1131C28.1203 28.3664 27.847 28.7451 27.6821 29.2566C27.6452 29.3599 27.6156 29.4607 27.5959 29.5566C27.5738 29.6525 27.559 29.7632 27.5467 29.8886C27.5344 30.014 27.5245 30.1591 27.5196 30.3263C27.5147 30.4935 27.5098 30.6952 27.5098 30.9313C27.5098 31.1673 27.5122 31.3714 27.5196 31.5387C27.5245 31.7059 27.5344 31.8534 27.5467 31.9764C27.559 32.1018 27.5762 32.2125 27.5959 32.3133C27.6181 32.4141 27.6452 32.5125 27.6821 32.6084C27.847 33.1199 28.1178 33.4986 28.4994 33.7519C28.8785 34.0052 29.3438 34.1306 29.8903 34.1306C30.4368 34.1306 30.8676 34.0101 31.2368 33.7716C31.6036 33.5306 31.8769 33.1937 32.0541 32.7559C32.0837 32.7018 32.0689 32.665 32.0073 32.6477L31.0128 32.2002C30.9586 32.1707 30.9143 32.1854 30.8848 32.2444C30.7986 32.4461 30.6805 32.6133 30.5254 32.7461C30.3703 32.8789 30.161 32.9478 29.9001 32.9478C29.6564 32.9478 29.457 32.8863 29.3019 32.7658C29.1468 32.6453 29.036 32.4781 28.9696 32.2641C28.9523 32.21 28.9351 32.151 28.9228 32.0871C28.9105 32.0231 28.9006 31.942 28.8908 31.8461C28.8809 31.7502 28.876 31.6272 28.8736 31.4821C28.8711 31.337 28.8686 31.155 28.8686 30.9337C28.8686 30.7124 28.8686 30.5329 28.8736 30.3878C28.876 30.2427 28.8834 30.1197 28.8908 30.0238V30.0189Z" fill="white"/>
<path d="M37.5902 29.8985C37.5779 29.7706 37.5606 29.655 37.5409 29.5517C37.5188 29.4484 37.4917 29.3427 37.4548 29.232C37.2972 28.7353 37.0166 28.359 36.6104 28.1082C36.2067 27.8549 35.734 27.7295 35.1925 27.7295C34.6509 27.7295 34.1782 27.8549 33.7745 28.1082C33.3708 28.3615 33.0877 28.7353 32.9301 29.232C32.8932 29.3402 32.8637 29.4484 32.844 29.5517C32.8218 29.655 32.807 29.7706 32.7947 29.8985C32.7824 30.0263 32.7726 30.1714 32.7677 30.3362C32.7627 30.5009 32.7578 30.6977 32.7578 30.9288C32.7578 31.16 32.7603 31.3567 32.7677 31.5215C32.775 31.6862 32.7824 31.8313 32.7947 31.9592C32.807 32.0871 32.8243 32.2027 32.844 32.306C32.8661 32.4092 32.8932 32.515 32.9301 32.6256C33.0877 33.1298 33.3683 33.506 33.7745 33.7569C34.1782 34.0052 34.6509 34.1306 35.1925 34.1306C35.734 34.1306 36.2067 34.0052 36.6104 33.7569C37.0141 33.506 37.2948 33.1298 37.4548 32.6256C37.4917 32.515 37.5213 32.4092 37.5409 32.306C37.5631 32.2027 37.5779 32.0871 37.5902 31.9592C37.6025 31.8313 37.6123 31.6862 37.6173 31.5215C37.6222 31.3567 37.6271 31.16 37.6271 30.9288C37.6271 30.6977 37.6246 30.5009 37.6173 30.3362C37.6099 30.1714 37.6025 30.0263 37.5902 29.8985ZM36.2633 31.4477C36.2609 31.5928 36.2535 31.7158 36.2461 31.8166C36.2362 31.9174 36.2264 32.0035 36.2141 32.0723C36.2018 32.1412 36.187 32.2051 36.1673 32.2592C36.1008 32.4732 35.9851 32.6404 35.8202 32.7609C35.6553 32.8839 35.446 32.9429 35.19 32.9429C34.934 32.9429 34.7247 32.8814 34.5598 32.7609C34.3949 32.6404 34.2792 32.4732 34.2127 32.2592C34.1955 32.2051 34.1782 32.1412 34.1659 32.0723C34.1536 32.0035 34.1438 31.9174 34.1339 31.8166C34.1241 31.7158 34.1191 31.5928 34.1167 31.4477C34.1142 31.3026 34.1118 31.128 34.1118 30.9288C34.1118 30.7296 34.1118 30.555 34.1167 30.41C34.1191 30.2649 34.1265 30.1419 34.1339 30.0411C34.1438 29.9403 34.1536 29.8542 34.1659 29.7853C34.1782 29.7165 34.193 29.6525 34.2127 29.5984C34.2792 29.3845 34.3949 29.2173 34.5598 29.0968C34.7247 28.9738 34.934 28.9148 35.19 28.9148C35.446 28.9148 35.6553 28.9763 35.8202 29.0968C35.9851 29.2173 36.1008 29.3845 36.1673 29.5984C36.1845 29.6525 36.2018 29.7165 36.2141 29.7853C36.2264 29.8542 36.2362 29.9403 36.2461 30.0411C36.2559 30.1419 36.2609 30.2649 36.2633 30.41C36.2658 30.555 36.2682 30.7296 36.2682 30.9288C36.2682 31.128 36.2682 31.3026 36.2633 31.4477Z" fill="white"/>
<path d="M44.333 27.8301H43.2646C43.1908 27.8301 43.144 27.8596 43.1194 27.9211L41.5784 31.4573H41.5414L39.9733 27.9211C39.9487 27.8596 39.8995 27.8301 39.8281 27.8301H38.7425C38.6809 27.8301 38.6514 27.8596 38.6514 27.9211V33.9361C38.6514 33.9976 38.6809 34.0271 38.7425 34.0271H39.7739C39.8355 34.0271 39.865 33.9976 39.865 33.9361V30.4466H39.9019L41.0516 33.0631C41.0885 33.1418 41.1451 33.1812 41.2239 33.1812H41.8541C41.9329 33.1812 41.9919 33.1418 42.0264 33.0631L43.176 30.4466H43.2129V33.9361C43.2129 33.9976 43.2425 34.0271 43.304 34.0271H44.3355C44.397 34.0271 44.4266 33.9976 44.4266 33.9361V27.9211C44.4266 27.8596 44.397 27.8301 44.3355 27.8301H44.333Z" fill="white"/>
<path d="M49.6973 28.3858C49.5078 28.2112 49.2813 28.0735 49.013 27.9752C48.7446 27.8768 48.4443 27.8301 48.1095 27.8301H45.7019C45.6404 27.8301 45.6108 27.8596 45.6108 27.9211V33.9361C45.6108 33.9976 45.6404 34.0271 45.7019 34.0271H46.8614C46.9229 34.0271 46.9525 33.9976 46.9525 33.9361V31.868C46.9525 31.8311 46.9697 31.8139 47.0066 31.8139H48.1095C48.4443 31.8139 48.7446 31.7647 49.013 31.6688C49.2813 31.5729 49.5078 31.4352 49.6924 31.2581C49.877 31.0811 50.0198 30.872 50.1207 30.6286C50.2217 30.3851 50.2709 30.1171 50.2709 29.8269C50.2709 29.5367 50.2217 29.2588 50.1256 29.0154C50.0296 28.7719 49.8844 28.5629 49.6973 28.3858ZM48.6929 30.4319C48.5354 30.5819 48.3138 30.6556 48.0258 30.6556H47.0042C46.9673 30.6556 46.95 30.6384 46.95 30.6015V29.0424C46.95 29.0055 46.9673 28.9883 47.0042 28.9883H48.0258C48.3114 28.9883 48.5329 29.0646 48.6929 29.217C48.8505 29.3695 48.9292 29.5712 48.9292 29.8269C48.9292 30.0827 48.8505 30.2843 48.6929 30.4343V30.4319Z" fill="white"/>
<path d="M55.1967 27.8301H51.2185C51.157 27.8301 51.1274 27.8596 51.1274 27.9211V33.9361C51.1274 33.9976 51.157 34.0271 51.2185 34.0271H55.1967C55.2582 34.0271 55.2878 33.9976 55.2878 33.9361V32.9623C55.2878 32.9008 55.2582 32.8713 55.1967 32.8713H52.5232C52.4863 32.8713 52.4691 32.8541 52.4691 32.8172V31.5335C52.4691 31.4967 52.4863 31.4794 52.5232 31.4794H54.7486C54.8102 31.4794 54.8397 31.4499 54.8397 31.3885V30.422C54.8397 30.3605 54.8102 30.331 54.7486 30.331H52.5232C52.4863 30.331 52.4691 30.3114 52.4691 30.2769V29.0474C52.4691 29.0105 52.4863 28.9933 52.5232 28.9933H55.1967C55.2582 28.9933 55.2878 28.9637 55.2878 28.9023V27.9284C55.2878 27.867 55.2582 27.8375 55.1967 27.8375V27.8301Z" fill="white"/>
<path d="M60.5264 27.8398H55.9378C55.8762 27.8398 55.8467 27.8694 55.8467 27.9308V28.9342C55.8467 28.9932 55.8762 29.0252 55.9378 29.0252H57.5059C57.5428 29.0252 57.56 29.0448 57.56 29.0793V33.9361C57.56 33.9975 57.5896 34.027 57.6511 34.027H58.8106C58.8721 34.027 58.9017 33.9975 58.9017 33.9361V29.0793C58.9017 29.0424 58.9189 29.0252 58.9558 29.0252H60.524C60.5855 29.0252 60.615 28.9956 60.615 28.9342V27.9308C60.615 27.8694 60.5855 27.8398 60.524 27.8398H60.5264Z" fill="white"/>
<path d="M61.4568 27.8301H62.6138C62.6631 27.8301 62.7049 27.8719 62.7049 27.9211V33.9361C62.7049 33.9878 62.6631 34.0271 62.6138 34.0271H61.4568C61.4076 34.0271 61.3657 33.9853 61.3657 33.9361V27.9211C61.3657 27.8694 61.4076 27.8301 61.4568 27.8301Z" fill="white"/>
<path d="M68.1353 27.8398H63.5467C63.4851 27.8398 63.4556 27.8694 63.4556 27.9308V28.9342C63.4556 28.9932 63.4851 29.0252 63.5467 29.0252H65.1148C65.1517 29.0252 65.1689 29.0448 65.1689 29.0793V33.9361C65.1689 33.9975 65.1985 34.027 65.26 34.027H66.4195C66.481 34.027 66.5106 33.9975 66.5106 33.9361V29.0793C66.5106 29.0424 66.5278 29.0252 66.5647 29.0252H68.1329C68.1944 29.0252 68.2239 28.9956 68.2239 28.9342V27.9308C68.2239 27.8694 68.1944 27.8398 68.1329 27.8398H68.1353Z" fill="white"/>
<path d="M69.0662 27.8301H70.2232C70.2749 27.8301 70.3143 27.8719 70.3143 27.9211V33.9361C70.3143 33.9878 70.2724 34.0271 70.2232 34.0271H69.0662C69.0169 34.0271 68.9751 33.9853 68.9751 33.9361V27.9211C68.9751 27.8719 69.0169 27.8301 69.0662 27.8301Z" fill="white"/>
<path d="M76.163 27.8301H74.9863C74.9248 27.8301 74.8854 27.8596 74.8681 27.9211L73.6644 31.986H73.6373L72.3966 27.9211C72.3793 27.8596 72.3375 27.8301 72.2784 27.8301H71.0919C71.018 27.8301 70.9909 27.8645 71.0106 27.9309L72.9825 33.9361C72.9997 33.9976 73.0391 34.0271 73.1006 34.0271H74.1592C74.2133 34.0271 74.2503 33.9976 74.2675 33.9361L76.2393 27.9309C76.2566 27.8645 76.2344 27.8301 76.1655 27.8301H76.163Z" fill="white"/>
<path d="M80.9979 27.8301H77.0198C76.9583 27.8301 76.9287 27.8596 76.9287 27.9211V33.9361C76.9287 33.9976 76.9583 34.0271 77.0198 34.0271H80.9979C81.0595 34.0271 81.089 33.9976 81.089 33.9361V32.9623C81.089 32.9008 81.0595 32.8713 80.9979 32.8713H78.3245C78.2876 32.8713 78.2704 32.8541 78.2704 32.8172V31.5335C78.2704 31.4967 78.2876 31.4794 78.3245 31.4794H80.5499C80.6115 31.4794 80.641 31.4499 80.641 31.3885V30.422C80.641 30.3605 80.6115 30.331 80.5499 30.331H78.3245C78.2876 30.331 78.2704 30.3114 78.2704 30.2769V29.0474C78.2704 29.0105 78.2876 28.9933 78.3245 28.9933H80.9979C81.0595 28.9933 81.089 28.9637 81.089 28.9023V27.9284C81.089 27.867 81.0595 27.8375 80.9979 27.8375V27.8301Z" fill="white"/>
<path d="M86.7829 27.8301H85.7515C85.6899 27.8301 85.6604 27.8596 85.6604 27.9211V31.8213H85.6161L83.4251 27.9211C83.3882 27.8596 83.3365 27.8301 83.2701 27.8301H82.1746C82.113 27.8301 82.0835 27.8596 82.0835 27.9211V33.9361C82.0835 33.9976 82.113 34.0271 82.1746 34.0271H83.206C83.2676 34.0271 83.2971 33.9976 83.2971 33.9361V30.0458H83.3414L85.5398 33.9361C85.5767 33.9976 85.6284 34.0271 85.6948 34.0271H86.7805C86.842 34.0271 86.8716 33.9976 86.8716 33.9361V27.9211C86.8716 27.8596 86.842 27.8301 86.7805 27.8301H86.7829Z" fill="white"/>
<path d="M92.1273 27.8301H88.1492C88.0876 27.8301 88.0581 27.8596 88.0581 27.9211V33.9361C88.0581 33.9976 88.0876 34.0271 88.1492 34.0271H92.1273C92.1889 34.0271 92.2184 33.9976 92.2184 33.9361V32.9623C92.2184 32.9008 92.1889 32.8713 92.1273 32.8713H89.4539C89.417 32.8713 89.3998 32.8541 89.3998 32.8172V31.5335C89.3998 31.4967 89.417 31.4794 89.4539 31.4794H91.6793C91.7409 31.4794 91.7704 31.4499 91.7704 31.3885V30.422C91.7704 30.3605 91.7409 30.331 91.6793 30.331H89.4539C89.417 30.331 89.3998 30.3114 89.3998 30.2769V29.0474C89.3998 29.0105 89.417 28.9933 89.4539 28.9933H92.1273C92.1889 28.9933 92.2184 28.9637 92.2184 28.9023V27.9284C92.2184 27.867 92.1889 27.8375 92.1273 27.8375V27.8301Z" fill="white"/>
<path d="M95.7857 30.3017L95.4558 30.255C95.0964 30.2083 94.8453 30.1247 94.7025 30.0091C94.5597 29.8935 94.4883 29.7484 94.4883 29.5714C94.4883 29.3771 94.5572 29.2172 94.6976 29.0894C94.8379 28.9615 95.0447 28.8976 95.3179 28.8976C95.5739 28.8976 95.8177 28.9369 96.0515 29.0156C96.2854 29.0943 96.5217 29.2123 96.758 29.3722C96.8073 29.4017 96.8491 29.3943 96.886 29.3451L97.4424 28.5164C97.4842 28.4623 97.4793 28.4156 97.4252 28.3811C97.1642 28.1795 96.8491 28.0221 96.4848 27.9065C96.1204 27.7909 95.7315 27.7344 95.3179 27.7344C94.9831 27.7344 94.6803 27.7786 94.4095 27.8721C94.1388 27.9631 93.9074 28.091 93.7153 28.2557C93.5233 28.4205 93.3756 28.6197 93.2722 28.8533C93.1688 29.0869 93.1171 29.3476 93.1171 29.6328C93.1171 30.1861 93.287 30.614 93.6243 30.914C93.9615 31.2141 94.4465 31.4083 95.0791 31.4944L95.409 31.5387C95.7807 31.5879 96.0318 31.669 96.1672 31.7846C96.3001 31.9002 96.3691 32.0477 96.3691 32.2321C96.3691 32.451 96.2829 32.6281 96.1081 32.7658C95.9358 32.901 95.6847 32.9699 95.3548 32.9699C95.025 32.9699 94.7246 32.9035 94.4514 32.7732C94.1781 32.6428 93.9369 32.4953 93.7301 32.3305C93.6759 32.2887 93.6292 32.2912 93.5922 32.3403L92.898 33.1322C92.8562 33.1863 92.8587 33.2379 92.9079 33.2871C93.0285 33.4027 93.1762 33.5109 93.351 33.6142C93.5233 33.7175 93.7153 33.8085 93.9221 33.8822C94.1289 33.956 94.3505 34.0175 94.5843 34.0642C94.8182 34.1085 95.057 34.1331 95.3007 34.1331C95.702 34.1331 96.054 34.0839 96.3592 33.988C96.6645 33.8896 96.918 33.7544 97.1199 33.5822C97.3218 33.4101 97.4769 33.2035 97.5803 32.9625C97.6836 32.724 97.7353 32.4633 97.7353 32.183C97.7353 31.6174 97.5704 31.1846 97.243 30.8845C96.9156 30.5845 96.4282 30.3902 95.7832 30.3066L95.7857 30.3017Z" fill="white"/>
<path d="M101.214 30.3017L100.884 30.255C100.525 30.2083 100.273 30.1247 100.131 30.0091C99.9879 29.8935 99.9165 29.7484 99.9165 29.5714C99.9165 29.3771 99.9855 29.2172 100.126 29.0894C100.266 28.9615 100.473 28.8976 100.746 28.8976C101.002 28.8976 101.246 28.9369 101.48 29.0156C101.714 29.0943 101.95 29.2123 102.186 29.3722C102.235 29.4017 102.277 29.3943 102.314 29.3451L102.871 28.5164C102.912 28.4623 102.908 28.4156 102.853 28.3811C102.592 28.1795 102.277 28.0221 101.913 27.9065C101.549 27.7909 101.16 27.7344 100.746 27.7344C100.411 27.7344 100.109 27.7786 99.8378 27.8721C99.567 27.9631 99.3356 28.091 99.1436 28.2557C98.9515 28.4205 98.8038 28.6197 98.7004 28.8533C98.5971 29.0869 98.5454 29.3476 98.5454 29.6328C98.5454 30.1861 98.7152 30.614 99.0525 30.914C99.3897 31.2141 99.8747 31.4083 100.507 31.4944L100.837 31.5387C101.209 31.5879 101.46 31.669 101.595 31.7846C101.728 31.9002 101.797 32.0477 101.797 32.2321C101.797 32.451 101.711 32.6281 101.536 32.7658C101.364 32.901 101.113 32.9699 100.783 32.9699C100.453 32.9699 100.153 32.9035 99.8796 32.7732C99.6064 32.6428 99.3651 32.4953 99.1583 32.3305C99.1042 32.2887 99.0574 32.2912 99.0205 32.3403L98.3263 33.1322C98.2844 33.1863 98.2869 33.2379 98.3361 33.2871C98.4567 33.4027 98.6044 33.5109 98.7792 33.6142C98.9515 33.7175 99.1436 33.8085 99.3503 33.8822C99.5571 33.956 99.7787 34.0175 100.013 34.0642C100.246 34.1085 100.485 34.1331 100.729 34.1331C101.13 34.1331 101.482 34.0839 101.787 33.988C102.093 33.8896 102.346 33.7544 102.548 33.5822C102.75 33.4101 102.905 33.2035 103.008 32.9625C103.112 32.724 103.164 32.4633 103.164 32.183C103.164 31.6174 102.999 31.1846 102.671 30.8845C102.344 30.5845 101.856 30.3902 101.211 30.3066L101.214 30.3017Z" fill="white"/>
<path d="M110.201 31.6393H110.777V30.518H109.254C109.241 30.7319 109.214 30.9458 109.17 31.1647C109.128 31.3836 109.067 31.5901 108.988 31.7844L108.003 30.7171C108.173 30.6139 108.335 30.5032 108.491 30.3901C108.646 30.2745 108.781 30.1491 108.897 30.0114C109.012 29.8761 109.103 29.7236 109.17 29.5613C109.236 29.3966 109.271 29.2146 109.271 29.013C109.271 28.7818 109.224 28.5752 109.131 28.3933C109.037 28.2113 108.907 28.0588 108.744 27.9334C108.579 27.808 108.387 27.7145 108.166 27.6506C107.944 27.5867 107.703 27.5547 107.439 27.5547C107.146 27.5547 106.883 27.594 106.649 27.6727C106.415 27.7514 106.213 27.8621 106.048 27.9998C105.881 28.14 105.753 28.3023 105.664 28.4867C105.576 28.6736 105.532 28.8679 105.532 29.0744C105.532 29.2195 105.551 29.3622 105.591 29.5023C105.63 29.6425 105.684 29.7753 105.751 29.9032C105.817 30.031 105.893 30.1515 105.98 30.2671C106.066 30.3827 106.152 30.4884 106.245 30.5868C106.063 30.6975 105.893 30.8081 105.733 30.9237C105.576 31.0393 105.44 31.1672 105.327 31.3073C105.214 31.4475 105.125 31.6024 105.061 31.7721C104.997 31.9418 104.965 32.1361 104.965 32.3549C104.965 32.6107 105.012 32.8468 105.106 33.0607C105.199 33.2771 105.34 33.464 105.522 33.6263C105.704 33.7886 105.928 33.9116 106.196 34.0001C106.465 34.0886 106.775 34.1329 107.127 34.1329C107.572 34.1329 107.937 34.069 108.222 33.9411C108.508 33.8132 108.751 33.6681 108.951 33.5034L109.426 34.0222H111.058L109.79 32.6451C109.96 32.3599 110.098 32.0229 110.201 31.6344V31.6393ZM106.817 29.1064C106.817 28.9416 106.873 28.8138 106.984 28.7228C107.097 28.6318 107.235 28.5875 107.4 28.5875C107.565 28.5875 107.703 28.6318 107.816 28.7228C107.927 28.8138 107.983 28.9416 107.983 29.1064V29.1433C107.983 29.3253 107.929 29.4827 107.818 29.613C107.71 29.7433 107.548 29.8737 107.336 30.0015C107.146 29.7876 107.013 29.6228 106.935 29.5048C106.856 29.3867 106.817 29.2662 106.817 29.1458V29.1089V29.1064ZM107.326 33.0164C106.996 33.0164 106.75 32.9402 106.588 32.7877C106.423 32.6353 106.341 32.4435 106.341 32.2123V32.1213C106.341 31.9566 106.383 31.8115 106.469 31.6836C106.556 31.5557 106.701 31.4303 106.908 31.3098L108.249 32.7582C107.993 32.9279 107.686 33.014 107.329 33.014L107.326 33.0164Z" fill="white"/>
<path d="M118.466 31.0616C118.325 30.9436 118.173 30.8575 118.005 30.801C117.838 30.7469 117.678 30.7173 117.525 30.7173V30.6632C117.69 30.6583 117.843 30.6288 117.986 30.5772C118.128 30.5255 118.254 30.4444 118.36 30.3362C118.466 30.228 118.552 30.0878 118.616 29.9157C118.68 29.746 118.712 29.5394 118.712 29.296C118.712 28.8041 118.564 28.4082 118.269 28.1106C117.973 27.8131 117.562 27.6631 117.033 27.6631H113.941V34.0249H117.316C117.552 34.0249 117.771 33.9782 117.973 33.8847C118.173 33.7913 118.347 33.6609 118.493 33.4962C118.638 33.3314 118.754 33.1396 118.835 32.9183C118.916 32.697 118.958 32.4609 118.958 32.2125C118.958 31.9395 118.911 31.7084 118.818 31.519C118.724 31.3297 118.606 31.1772 118.466 31.0592V31.0616ZM115.327 28.8336H116.705C116.888 28.8336 117.03 28.8853 117.134 28.9886C117.237 29.0918 117.289 29.2345 117.289 29.4165V29.6894C117.289 29.8714 117.237 30.014 117.134 30.1173C117.03 30.2206 116.888 30.2722 116.705 30.2722H115.327V28.8312V28.8336ZM117.518 32.2863C117.518 32.4682 117.464 32.6109 117.358 32.7117C117.252 32.8125 117.107 32.8617 116.925 32.8617H115.329V31.4034H116.925C117.107 31.4034 117.252 31.4551 117.358 31.5534C117.464 31.6543 117.518 31.7944 117.518 31.9764V32.2863Z" fill="white"/>
<path d="M123.638 31.5682C123.638 32.0182 123.549 32.3526 123.372 32.5764C123.194 32.7977 122.902 32.9084 122.488 32.9084C122.074 32.9084 121.779 32.7977 121.602 32.5764C121.424 32.3551 121.336 32.0182 121.336 31.5682V27.668H119.987V31.4231C119.987 31.8903 120.031 32.2961 120.12 32.6404C120.208 32.9846 120.354 33.265 120.553 33.4888C120.755 33.7101 121.013 33.8748 121.328 33.9806C121.646 34.0863 122.03 34.1404 122.488 34.1404C122.946 34.1404 123.33 34.0863 123.647 33.9806C123.963 33.8748 124.221 33.7101 124.423 33.4888C124.622 33.2674 124.767 32.9846 124.856 32.6404C124.945 32.2961 124.989 31.8903 124.989 31.4231V27.668H123.638V31.5682Z" fill="white"/>
<path d="M128.967 30.1786L128.337 30.0778C128.069 30.036 127.877 29.9671 127.759 29.8712C127.64 29.7753 127.581 29.6179 127.581 29.4015C127.581 29.2097 127.658 29.0572 127.81 28.949C127.963 28.8408 128.194 28.7867 128.505 28.7867C128.832 28.7867 129.105 28.8433 129.322 28.9539C129.538 29.0646 129.721 29.2072 129.873 29.3818L130.794 28.4498C130.533 28.1572 130.218 27.9359 129.854 27.7834C129.489 27.6309 129.066 27.5547 128.586 27.5547C128.209 27.5547 127.872 27.6014 127.579 27.6949C127.286 27.7883 127.035 27.9211 126.831 28.0908C126.626 28.2605 126.471 28.4646 126.36 28.7031C126.252 28.9416 126.195 29.2023 126.195 29.4876C126.195 30.0237 126.353 30.4516 126.666 30.7737C126.978 31.0959 127.473 31.3 128.148 31.386L128.778 31.4672C129.076 31.509 129.273 31.5901 129.371 31.7057C129.467 31.8238 129.516 31.9688 129.516 32.1434C129.516 32.3721 129.433 32.5566 129.27 32.6943C129.105 32.832 128.854 32.9009 128.512 32.9009C127.879 32.9009 127.348 32.6599 126.917 32.1779L126.003 33.1001C126.277 33.405 126.609 33.6534 126.998 33.8452C127.387 34.037 127.862 34.1329 128.421 34.1329C128.817 34.1329 129.169 34.0813 129.479 33.9829C129.79 33.8821 130.051 33.7419 130.26 33.5575C130.469 33.3755 130.629 33.1566 130.74 32.9009C130.851 32.6451 130.905 32.3672 130.905 32.0623C130.905 31.509 130.747 31.0811 130.43 30.7811C130.112 30.4811 129.627 30.2794 128.97 30.1737L128.967 30.1786Z" fill="white"/>
<path d="M131.803 28.7692H132.625V32.9251H131.803V34.0268H134.834V32.9251H134.011V28.7692H134.834V27.665H131.803V28.7692Z" fill="white"/>
<path d="M139.888 31.9489H139.861L139.248 30.6726L137.507 27.665H135.991V34.0268H137.295V29.743H137.323L137.935 31.0193L139.676 34.0268H141.192V27.665H139.888V31.9489Z" fill="white"/>
<path d="M142.598 34.0268H146.93V32.7973H143.984V31.4201H146.512V30.1906H143.984V28.8971H146.93V27.665H142.598V34.0268Z" fill="white"/>
<path d="M150.744 30.1786L150.114 30.0778C149.845 30.036 149.653 29.9671 149.535 29.8712C149.417 29.7753 149.358 29.6179 149.358 29.4015C149.358 29.2097 149.434 29.0572 149.587 28.949C149.739 28.8408 149.971 28.7867 150.281 28.7867C150.611 28.7867 150.882 28.8433 151.098 28.9539C151.315 29.0646 151.499 29.2072 151.65 29.3818L152.57 28.4498C152.309 28.1572 151.994 27.9359 151.63 27.7834C151.266 27.6309 150.842 27.5547 150.362 27.5547C149.986 27.5547 149.648 27.6014 149.353 27.6949C149.057 27.7883 148.809 27.9211 148.604 28.0908C148.4 28.2605 148.245 28.4646 148.134 28.7031C148.026 28.9416 147.969 29.2023 147.969 29.4876C147.969 30.0237 148.127 30.4516 148.44 30.7737C148.752 31.0959 149.247 31.3 149.922 31.386L150.552 31.4672C150.85 31.509 151.047 31.5901 151.145 31.7057C151.241 31.8238 151.29 31.9688 151.29 32.1434C151.29 32.3721 151.209 32.5566 151.044 32.6943C150.879 32.832 150.628 32.9009 150.286 32.9009C149.653 32.9009 149.121 32.6599 148.688 32.1779L147.777 33.1001C148.051 33.405 148.383 33.6534 148.772 33.8452C149.161 34.037 149.636 34.1329 150.195 34.1329C150.589 34.1329 150.943 34.0813 151.253 33.9829C151.563 33.8821 151.824 33.7419 152.034 33.5575C152.243 33.3755 152.403 33.1566 152.514 32.9009C152.622 32.6451 152.679 32.3672 152.679 32.0623C152.679 31.509 152.521 31.0811 152.204 30.7811C151.888 30.4811 151.401 30.2794 150.744 30.1737V30.1786Z" fill="white"/>
<path d="M156.31 30.1786L155.679 30.0778C155.411 30.036 155.219 29.9671 155.101 29.8712C154.983 29.7753 154.924 29.6179 154.924 29.4015C154.924 29.2097 155 29.0572 155.153 28.949C155.305 28.8408 155.537 28.7867 155.847 28.7867C156.174 28.7867 156.448 28.8433 156.664 28.9539C156.881 29.0646 157.063 29.2072 157.216 29.3818L158.136 28.4498C157.875 28.1572 157.56 27.9359 157.196 27.7834C156.832 27.6309 156.408 27.5547 155.928 27.5547C155.551 27.5547 155.214 27.6014 154.921 27.6949C154.626 27.7883 154.377 27.9211 154.173 28.0908C153.969 28.2605 153.813 28.4646 153.703 28.7031C153.594 28.9416 153.538 29.2023 153.538 29.4876C153.538 30.0237 153.695 30.4516 154.008 30.7737C154.321 31.0959 154.815 31.3 155.49 31.386L156.12 31.4672C156.418 31.509 156.615 31.5901 156.713 31.7057C156.809 31.8238 156.859 31.9688 156.859 32.1434C156.859 32.3721 156.777 32.5566 156.612 32.6943C156.448 32.832 156.196 32.9009 155.854 32.9009C155.222 32.9009 154.69 32.6599 154.257 32.1779L153.343 33.1001C153.617 33.405 153.949 33.6534 154.338 33.8452C154.727 34.037 155.202 34.1329 155.761 34.1329C156.157 34.1329 156.509 34.0813 156.819 33.9829C157.129 33.8821 157.388 33.7419 157.6 33.5575C157.811 33.373 157.969 33.1566 158.08 32.9009C158.19 32.6451 158.245 32.3672 158.245 32.0623C158.245 31.509 158.087 31.0811 157.769 30.7811C157.452 30.4811 156.967 30.2794 156.31 30.1737V30.1786Z" fill="white"/>
<path d="M164.936 32.6279C164.731 32.8123 164.461 32.9058 164.118 32.9058C163.712 32.9058 163.385 32.773 163.139 32.5099C162.893 32.2467 162.769 31.8606 162.769 31.3565V30.336C162.769 29.8319 162.893 29.4482 163.139 29.1826C163.385 28.9171 163.712 28.7867 164.118 28.7867C164.466 28.7867 164.729 28.8679 164.909 29.0277C165.088 29.1876 165.221 29.4015 165.305 29.6695L166.501 29.0498C166.27 28.5334 165.962 28.1547 165.581 27.9137C165.197 27.6752 164.712 27.5547 164.121 27.5547C163.69 27.5547 163.299 27.6285 162.954 27.7736C162.607 27.9186 162.312 28.1326 162.068 28.4154C161.824 28.6982 161.637 29.0474 161.502 29.463C161.369 29.8786 161.302 30.3532 161.302 30.8893C161.302 31.4254 161.369 31.9024 161.502 32.3057C161.635 32.709 161.824 33.046 162.068 33.3165C162.312 33.587 162.607 33.7886 162.954 33.9263C163.301 34.064 163.69 34.1304 164.121 34.1304C164.712 34.1304 165.199 33.9976 165.586 33.7345C165.972 33.4714 166.282 33.0951 166.521 32.6107L165.389 31.9541C165.293 32.2148 165.14 32.4385 164.938 32.6254L164.936 32.6279Z" fill="white"/>
<path d="M167.483 34.0268H171.819V32.7973H168.872V31.4201H171.398V30.1906H168.872V28.8971H171.819V27.665H167.483V34.0268Z" fill="white"/>
<path d="M176.919 31.9489H176.89L176.279 30.6726L174.536 27.665H173.022V34.0268H174.327V29.743H174.354L174.965 31.0193L176.708 34.0268H178.224V27.665H176.919V31.9489Z" fill="white"/>
<path d="M179.172 28.8971H180.898V34.0268H182.283V28.8971H184.007V27.665H179.172V28.8971Z" fill="white"/>
<path d="M184.957 34.0268H189.29V32.7973H186.343V31.4201H188.871V30.1906H186.343V28.8971H189.29V27.665H184.957V34.0268Z" fill="white"/>
<path d="M195.151 30.8275C195.343 30.5053 195.439 30.1291 195.439 29.6963C195.439 29.3938 195.394 29.1159 195.301 28.8676C195.21 28.6192 195.079 28.4052 194.914 28.2257C194.747 28.0462 194.545 27.9085 194.306 27.8101C194.07 27.7118 193.804 27.665 193.514 27.665H190.493V34.0268H191.879V31.6931H192.874L193.986 34.0268H195.527L194.277 31.5308C194.666 31.3857 194.956 31.1496 195.148 30.83L195.151 30.8275ZM194.006 29.8979C194.006 30.1045 193.947 30.2619 193.829 30.3676C193.711 30.4734 193.548 30.5275 193.341 30.5275H191.882V28.8676H193.341C193.548 28.8676 193.711 28.9217 193.829 29.0274C193.947 29.1331 194.006 29.2905 194.006 29.4971V29.8979Z" fill="white"/>
</g>
<defs>
<clipPath id="clip0_1441_35610">
<rect width="247" height="48" fill="white"/>
</clipPath>
</defs>
</svg>
